<svg xmlns="http://www.w3.org/2000/svg" version="1.1" viewBox="-5.0 -10.0 110.0 135.0">
 <path d="m89.5 43.219-20.617 10.324-1.4805 22.391 20.617-9.8125 1.4805-22.906zm-35.816 15.422c0-1.0352 0.28516-1.9766 0.74609-2.668 0.5-0.75 1.207-1.2109 2.0039-1.2109 0.80078 0 1.5078 0.46484 2.0078 1.2109l0.019532 0.03125c0.44922 0.6875 0.72656 1.6211 0.72656 2.6406 0 1.0352-0.28516 1.9766-0.74609 2.668-0.5 0.75-1.207 1.2109-2.0039 1.2109-0.80078 0-1.5078-0.46484-2.0078-1.2109l-0.019532-0.03125c-0.44922-0.6875-0.72656-1.6211-0.72656-2.6406zm25.949 2.2852c0-0.023437 0.003907-0.042969 0.007813-0.066406 0.11719-1.0117 0.50391-1.9062 1.0312-2.5352 0.57812-0.6875 1.332-1.0703 2.125-0.98047s1.4453 0.62891 1.8594 1.4258c0.375 0.73047 0.55469 1.6875 0.44922 2.7031 0 0.023438-0.003907 0.042969-0.007813 0.0625-0.11719 1.0117-0.50391 1.9062-1.0312 2.5352-0.57031 0.67969-1.3125 1.0586-2.0938 0.98438-0.023437 0-0.046875-0.003907-0.070312-0.007813-0.77734-0.10156-1.418-0.63281-1.8242-1.4219-0.375-0.73047-0.55469-1.6875-0.44922-2.7031zm-8.0156-4.0781c0-0.023437 0.003906-0.042968 0.007812-0.0625 0.11719-1.0117 0.50391-1.9062 1.0312-2.5352 0.57031-0.67969 1.3125-1.0586 2.0938-0.98438 0.023438 0 0.046875 0.003906 0.070312 0.007813 0.77734 0.10156 1.418 0.63281 1.8242 1.4219 0.375 0.73047 0.55469 1.6875 0.44922 2.7031 0 0.023437-0.003906 0.042968-0.007812 0.066406-0.11719 1.0117-0.50391 1.9062-1.0312 2.5352-0.57813 0.6875-1.332 1.0703-2.125 0.98047-0.79297-0.089844-1.4453-0.62891-1.8594-1.4258-0.375-0.73047-0.55469-1.6875-0.44922-2.7031zm-2.2734-17.895c1.0352 0 1.9766 0.28516 2.668 0.74609 0.75 0.5 1.2109 1.207 1.2109 2.0039 0 0.80078-0.46484 1.5078-1.2109 2.0078l-0.03125 0.019531c-0.6875 0.44922-1.6211 0.72656-2.6406 0.72656-1.0352 0-1.9766-0.28516-2.668-0.74609-0.75-0.5-1.2109-1.207-1.2109-2.0039 0-0.80078 0.46484-1.5078 1.2109-2.0078l0.03125-0.019531c0.6875-0.44922 1.6211-0.72656 2.6406-0.72656zm-20.664 12.277c0 1.0195 0.27734 1.9531 0.72656 2.6406l0.019531 0.03125c0.5 0.75 1.207 1.2109 2.0078 1.2109 0.80078 0 1.5078-0.46484 2.0039-1.2109 0.46094-0.69141 0.74609-1.6367 0.74609-2.668 0-1.0195-0.27734-1.9531-0.72656-2.6406l-0.019531-0.03125c-0.5-0.75-1.207-1.2109-2.0078-1.2109-0.80078 0-1.5078 0.46484-2.0039 1.2109-0.46094 0.69141-0.74609 1.6367-0.74609 2.668zm10.387 15.836c0-1.0352 0.28516-1.9766 0.74609-2.668 0.5-0.75 1.207-1.2109 2.0039-1.2109 0.80078 0 1.5078 0.46484 2.0078 1.2109 0.46094 0.69141 0.74609 1.6328 0.74609 2.668s-0.28516 1.9805-0.74609 2.668c-0.5 0.75-1.207 1.2109-2.0078 1.2109-0.80078 0-1.5078-0.46484-2.0078-1.2109l-0.019532-0.03125c-0.44922-0.6875-0.72656-1.6211-0.72656-2.6406zm-48.566-25.445 7.0195 21.871 22.246 2.5195-6.2188-21.574-23.047-2.8203zm0.33203-0.94922 15.988-16.648 22.914 2.8008-15.961 16.617-22.941-2.7734zm11.32 13.227c-0.30078-0.83984-0.33984-1.6914-0.16797-2.3867 0.19141-0.76562 0.64453-1.3555 1.3086-1.5898 0.66406-0.23438 1.3867-0.0625 2.0156 0.40625 0.57422 0.42969 1.0781 1.1133 1.3789 1.957 0.30078 0.83984 0.33984 1.6914 0.16797 2.3867-0.19141 0.76562-0.64453 1.3555-1.3086 1.5898s-1.3867 0.0625-2.0156-0.40625c-0.57422-0.42969-1.0781-1.1133-1.3789-1.957zm16.094-7.6797c-0.23828-1.0039-0.17578-1.9883 0.11328-2.7656 0.31641-0.84375 0.89844-1.457 1.6758-1.6406s1.5703 0.10547 2.2266 0.71875c0.60547 0.56641 1.1016 1.4219 1.3359 2.4297 0.23828 1.0039 0.17578 1.9883-0.11328 2.7656-0.3125 0.84375-0.89844 1.457-1.6758 1.6406-0.77734 0.18359-1.5703-0.10547-2.2266-0.71875-0.011719-0.007813-0.019531-0.019532-0.027343-0.027344-0.59375-0.56641-1.0742-1.4102-1.3086-2.3984zm-8.1328-16.062c-0.97656 0.34766-1.7695 0.93359-2.2656 1.5977-0.53516 0.71875-0.73438 1.5391-0.46875 2.293 0.26953 0.75391 0.94141 1.2656 1.8164 1.4844 0.80469 0.20312 1.7891 0.15234 2.7617-0.19531 0.97656-0.34766 1.7695-0.93359 2.2656-1.5977 0.53516-0.71875 0.73438-1.5391 0.46875-2.293-0.26953-0.75391-0.94141-1.2656-1.8164-1.4844-0.80469-0.20313-1.7891-0.15234-2.7617 0.19531zm-14.625 18.898c-0.29688-0.83203-0.33594-1.6758-0.16406-2.3633 0.19141-0.75781 0.63672-1.3438 1.2969-1.5781 0.65625-0.23438 1.375-0.0625 2 0.40625 0.57031 0.42578 1.0703 1.1055 1.3672 1.9414 0.29688 0.83203 0.33594 1.6758 0.16406 2.3633-0.19141 0.75781-0.63672 1.3438-1.2969 1.5781-0.65625 0.23438-1.375 0.0625-2-0.40625-0.57031-0.42578-1.0703-1.1055-1.3672-1.9414zm14.352 11.219c-0.32422-0.90625-0.36719-1.8242-0.17969-2.5742 0.20703-0.82031 0.6875-1.4531 1.3984-1.7031 0.70703-0.25 1.4805-0.066406 2.1562 0.4375 0.62109 0.46094 1.1641 1.2031 1.4883 2.1133 0.32422 0.90625 0.36719 1.8242 0.17969 2.5742-0.20703 0.82031-0.6875 1.4531-1.3984 1.7031-0.70703 0.25-1.4805 0.066406-2.1562-0.4375-0.62109-0.46094-1.1641-1.2031-1.4883-2.1133zm-2.1953-9.9766c-0.32031-0.89844-0.36328-1.8047-0.17969-2.5469 0.20312-0.80859 0.67969-1.4375 1.3828-1.6875s1.4648-0.066406 2.1328 0.43359c0.61328 0.45703 1.1523 1.1914 1.4727 2.0898 0.32031 0.89844 0.36328 1.8047 0.17969 2.5469-0.20312 0.80859-0.67969 1.4375-1.3828 1.6875-0.69922 0.25-1.4648 0.066407-2.1367-0.43359-0.61328-0.45703-1.1523-1.1914-1.4727-2.0898zm-9.375 9.0859c-0.30859-0.86328-0.35156-1.7383-0.17188-2.4531 0.19531-0.78516 0.66016-1.3906 1.3398-1.6328s1.418-0.0625 2.0664 0.41797c0.58984 0.44141 1.1094 1.1484 1.418 2.0117 0.30859 0.86328 0.35156 1.7383 0.17188 2.4531-0.19531 0.78516-0.66016 1.3906-1.3398 1.6328-0.67969 0.24219-1.418 0.0625-2.0664-0.41797-0.58984-0.44141-1.1094-1.1484-1.418-2.0117zm2.6211-25.16c-0.97656 0.34766-1.7695 0.93359-2.2656 1.5977-0.53906 0.71875-0.73438 1.543-0.46875 2.293 0.26953 0.75391 0.94141 1.2656 1.8125 1.4844 0.80469 0.20312 1.7891 0.15234 2.7617-0.19531 0.97656-0.34766 1.7695-0.93359 2.2656-1.5977 0.53906-0.71875 0.73438-1.543 0.46875-2.293-0.26953-0.75391-0.94141-1.2656-1.8125-1.4844-0.80469-0.20312-1.7891-0.15234-2.7617 0.19531zm18.023-6.7578c-0.91406 0.32422-1.6602 0.875-2.125 1.4961-0.50781 0.67969-0.69141 1.4531-0.44141 2.1641v0.003906c0.25391 0.71094 0.89062 1.1953 1.7109 1.4023 0.75391 0.1875 1.6758 0.14453 2.5898-0.17969 0.91406-0.32422 1.6602-0.875 2.125-1.4961 0.50781-0.67969 0.69531-1.457 0.44141-2.168s-0.89062-1.1953-1.7109-1.4023c-0.75391-0.1875-1.6758-0.14453-2.5898 0.17969zm7.6719 29.602 0.4375-13.891 0.40234 0.19922 9.0859 4.543c0.023437 0.015625 0.046875 0.027343 0.070312 0.035156l11.211 5.6055-1.375 22.414-20.113-9.832 0.16016-5.0664v-0.03125l0.12109-3.8242c0.003906-0.050781 0.003906-0.10156 0.003906-0.15234zm-5.5-0.058594c0.23828 1.0078 0.73047 1.8633 1.3359 2.4297 0.65625 0.61328 1.4492 0.90234 2.2266 0.71875 0.32812-0.078125 0.62109-0.23047 0.87109-0.44531l-0.035156 1.125-4.8047 4.8125-6.1133-21.59 15.961-16.641 3.1016 10.898-2.3398 1.168c0.26563-0.74219 0.31641-1.6719 0.09375-2.6211-0.23047-0.97266-0.70703-1.8008-1.293-2.3477-0.63672-0.59375-1.4062-0.875-2.1602-0.69531-0.75391 0.17578-1.3203 0.77344-1.625 1.5898-0.28125 0.75-0.33984 1.7031-0.10938 2.6719 0.23047 0.97266 0.70703 1.8008 1.293 2.3477 0.25391 0.23828 0.52734 0.42187 0.8125 0.55078l-1.9453 0.97266c-0.16797 0.074219-0.28516 0.23828-0.28906 0.43359l-0.36328 11.645c-0.17969-0.26953-0.38281-0.50781-0.59766-0.70703-0.65625-0.61328-1.4492-0.90234-2.2266-0.71875-0.77734 0.18359-1.3594 0.79688-1.6758 1.6406-0.28906 0.77734-0.35156 1.7617-0.11328 2.7656zm47.863-14.609-20.609 10.305-20.688-10.309 6.7461-3.375c0.027343-0.011719 0.050781-0.023437 0.074218-0.035156l13.828-6.9141 20.648 10.324z" fill-rule="evenodd"/>
<text x="0.0" y="117.5" font-size="5.0" font-weight="bold" font-family="Arbeit Regular, Helvetica, Arial-Unicode, Arial, Sans-serif" fill="#000000">Created by Zahirulizul</text><text x="0.0" y="122.5" font-size="5.0" font-weight="bold" font-family="Arbeit Regular, Helvetica, Arial-Unicode, Arial, Sans-serif" fill="#000000">from Noun Project</text></svg>