<svg xmlns="http://www.w3.org/2000/svg" xmlns:xlink="http://www.w3.org/1999/xlink" version="1.1" x="0px" y="0px" viewBox="0 0 24 30" style="enable-background:new 0 0 24 24;" xml:space="preserve"><path d="M22,2.5H2C1.724,2.5,1.5,2.724,1.5,3v10c0,0.276,0.224,0.5,0.5,0.5h2.5V15c0,0.276,0.224,0.5,0.5,0.5h1.5V21  c0,0.276,0.224,0.5,0.5,0.5h2c0.276,0,0.5-0.224,0.5-0.5v-5.5h5V21c0,0.276,0.224,0.5,0.5,0.5h2c0.276,0,0.5-0.224,0.5-0.5v-5.5H19  c0.276,0,0.5-0.224,0.5-0.5v-1.5H22c0.276,0,0.5-0.224,0.5-0.5V3C22.5,2.724,22.276,2.5,22,2.5z M8.5,20.5h-1v-5h1V20.5z M16.5,20.5  h-1v-5h1V20.5z M18.5,14.5H17h-2H9H7H5.5v-1h13V14.5z M21.5,12.5H19H5H2.5v-9h19V12.5z"/><path d="M4,9C3.724,9,3.5,9.224,3.5,9.5S3.724,10,4,10h2c0.276,0,0.5-0.224,0.5-0.5S6.276,9,6,9H5.5V6.5C5.5,6.224,5.276,6,5,6H4  C3.724,6,3.5,6.224,3.5,6.5S3.724,7,4,7h0.5v2H4z"/><path d="M8,10h2c0.276,0,0.5-0.224,0.5-0.5v-3C10.5,6.224,10.276,6,10,6H8C7.724,6,7.5,6.224,7.5,6.5v3C7.5,9.776,7.724,10,8,10z   M8.5,7h1v2h-1V7z"/><path d="M14,9c-0.276,0-0.5,0.224-0.5,0.5S13.724,10,14,10h2c0.276,0,0.5-0.224,0.5-0.5S16.276,9,16,9h-0.5V6.5  C15.5,6.224,15.276,6,15,6h-1c-0.276,0-0.5,0.224-0.5,0.5S13.724,7,14,7h0.5v2H14z"/><path d="M18,9h1.5v0.5c0,0.276,0.224,0.5,0.5,0.5s0.5-0.224,0.5-0.5v-1v-2C20.5,6.224,20.276,6,20,6s-0.5,0.224-0.5,0.5V8h-1V6.5  C18.5,6.224,18.276,6,18,6s-0.5,0.224-0.5,0.5v2C17.5,8.776,17.724,9,18,9z"/><path d="M12.02,7.5c0.276,0,0.5-0.224,0.5-0.5s-0.224-0.5-0.5-0.5h-0.01c-0.276,0-0.495,0.224-0.495,0.5S11.744,7.5,12.02,7.5z"/><path d="M12.02,9.5c0.276,0,0.5-0.224,0.5-0.5s-0.224-0.5-0.5-0.5h-0.01c-0.276,0-0.495,0.224-0.495,0.5S11.744,9.5,12.02,9.5z"/><text x="0" y="39" fill="#000000" font-size="5px" font-weight="bold" font-family="'Helvetica Neue', Helvetica, Arial-Unicode, Arial, Sans-serif">Created by Astatine Lab</text><text x="0" y="44" fill="#000000" font-size="5px" font-weight="bold" font-family="'Helvetica Neue', Helvetica, Arial-Unicode, Arial, Sans-serif">from the Noun Project</text></svg>