<svg xmlns="http://www.w3.org/2000/svg" viewBox="0 0 100 125" x="0px" y="0px"><title>6</title><g data-name="Layer 2"><path d="M17.5,60.57l6.08-5.24h5.24V73.08H24.35V59.87l-4.17,3.71Z"/><path d="M33.78,62.36q0-4.05,1.39-5.65T40,55.11h2.12q3.45,0,4.83,1.6t1.39,5.64V66q0,4-1.39,5.64t-4.83,1.6H40q-3.46,0-4.85-1.59T33.78,66Zm4.57.14v3.4a5.43,5.43,0,0,0,.46,2.85,2.32,2.32,0,0,0,1.88.6h.76a2.33,2.33,0,0,0,1.86-.57,5.54,5.54,0,0,0,.45-2.88V62.5a5.54,5.54,0,0,0-.45-2.88,2.33,2.33,0,0,0-1.86-.57H40.7a2.32,2.32,0,0,0-1.88.6A5.43,5.43,0,0,0,38.35,62.5Z"/><path d="M50.85,62.36q0-4.05,1.39-5.65t4.85-1.6h2.12q3.45,0,4.83,1.6t1.39,5.64V66q0,4-1.39,5.64t-4.83,1.6H57.09q-3.46,0-4.85-1.59T50.85,66Zm4.57.14v3.4a5.43,5.43,0,0,0,.46,2.85,2.32,2.32,0,0,0,1.88.6h.76a2.33,2.33,0,0,0,1.86-.57,5.54,5.54,0,0,0,.45-2.88V62.5a5.54,5.54,0,0,0-.45-2.88,2.33,2.33,0,0,0-1.86-.57h-.76a2.32,2.32,0,0,0-1.88.6A5.43,5.43,0,0,0,55.42,62.5Z"/><path d="M67.92,62.36q0-4.05,1.39-5.65t4.85-1.6h2.12q3.45,0,4.83,1.6t1.39,5.64V66q0,4-1.39,5.64t-4.83,1.6H74.16q-3.46,0-4.85-1.59T67.92,66Zm4.57.14v3.4A5.43,5.43,0,0,0,73,68.75a2.32,2.32,0,0,0,1.88.6h.76a2.33,2.33,0,0,0,1.86-.57,5.54,5.54,0,0,0,.45-2.88V62.5a5.54,5.54,0,0,0-.45-2.88,2.33,2.33,0,0,0-1.86-.57h-.76a2.32,2.32,0,0,0-1.88.6A5.43,5.43,0,0,0,72.49,62.5Z"/><path d="M80.83,44a1.38,1.38,0,0,1-1,2.35H68.17V39.31H64a1,1,0,0,1,0-2h7.88V28.46a.76.76,0,0,0-.76-.75H35.25a1,1,0,0,1,0-2H71.12a2.76,2.76,0,0,1,2.76,2.75V32.8h6a1.37,1.37,0,0,1,1.27.85,1.35,1.35,0,0,1-.3,1.5L76.38,39.6l1.26,1.26a1,1,0,0,1-1.41,1.41l-1.7-1.7a1.35,1.35,0,0,1,0-1.94l3.82-3.83H73.88v4.51H70.17V44.4h9a1,1,0,0,1,.23-.35A1,1,0,0,1,80.83,44Z"/><path d="M59.14,38.31a1,1,0,0,1-1,1H31.83V46.4H20.14a1.38,1.38,0,0,1-1-2.35l4.45-4.45-4.45-4.45a1.35,1.35,0,0,1-.3-1.5,1.37,1.37,0,0,1,1.27-.85,1,1,0,0,1,1,1,1,1,0,0,1-.09.41l4.42,4.42a1.35,1.35,0,0,1,0,1.94L21.65,44.4h8.18V39.31H26.12V34.8H24a1,1,0,0,1,0-2h2.12V28.46a2.75,2.75,0,0,1,2.75-2.75h2.42a1,1,0,0,1,0,2H28.87a.76.76,0,0,0-.75.75v8.85h30A1,1,0,0,1,59.14,38.31Z"/><path d="M31.29,34.62V30.14h1.2v1.67H34V30.14h1.2v4.47H34V32.87H32.48v1.75Z"/><path d="M36.2,34.62V30.14h1.21v4.47Z"/><path d="M42.21,31.54H41a.35.35,0,0,0-.15-.3.93.93,0,0,0-.48-.09h-.3a.73.73,0,0,0-.54.15,1.25,1.25,0,0,0-.13.72v.74a1.24,1.24,0,0,0,.13.72.73.73,0,0,0,.54.15h.33a.9.9,0,0,0,.49-.1.39.39,0,0,0,.14-.34V33h-.69v-.84h1.85v.76a1.86,1.86,0,0,1-.4,1.32,1.67,1.67,0,0,1-1.26.42h-.81a1.39,1.39,0,0,1-1.15-.48,2.2,2.2,0,0,1-.39-1.41V32.1a2.33,2.33,0,0,1,.41-1.53,1.62,1.62,0,0,1,1.3-.48h.65a1.87,1.87,0,0,1,1.18.36,1.1,1.1,0,0,1,.46.9Z"/><path d="M43,34.62V30.14h1.2v1.67h1.56V30.14h1.2v4.47h-1.2V32.87H44.18v1.75Z"/><path d="M47.65,33.23h1.15v0a.4.4,0,0,0,.13.34.8.8,0,0,0,.46.1h.3a.73.73,0,0,0,.38-.07.29.29,0,0,0,.11-.26v-.2A.27.27,0,0,0,50.1,33a.88.88,0,0,0-.39-.11l-1-.11a1.2,1.2,0,0,1-.79-.34,1.21,1.21,0,0,1-.25-.83v-.28a1.47,1.47,0,0,1,.1-.56,1,1,0,0,1,.29-.4,1,1,0,0,1,.39-.19,3.15,3.15,0,0,1,.69-.06h.72a1.67,1.67,0,0,1,1,.27.92.92,0,0,1,.35.78v.31H50.1v0a.35.35,0,0,0-.09-.28.55.55,0,0,0-.34-.08h-.28a.8.8,0,0,0-.39.07.25.25,0,0,0-.11.23v.19q0,.25.48.3l.89.1a1.45,1.45,0,0,1,.86.33,1,1,0,0,1,.28.76v.43a1.18,1.18,0,0,1-.35.89,1.28,1.28,0,0,1-.93.33h-1A1.9,1.9,0,0,1,48,34.4a1,1,0,0,1-.36-.86Z"/><path d="M55.74,32.89V33a1.4,1.4,0,0,1-1.64,1.65h-.41a1.78,1.78,0,0,1-1.33-.4A2.07,2.07,0,0,1,52,32.84v-.93a2.07,2.07,0,0,1,.38-1.42,1.78,1.78,0,0,1,1.33-.4H54a1.9,1.9,0,0,1,1.32.35,1.69,1.69,0,0,1,.37,1.25v.09h-1.2V31.7a.56.56,0,0,0-.14-.43.75.75,0,0,0-.49-.13.68.68,0,0,0-.52.15,1.28,1.28,0,0,0-.13.72v.74a1.26,1.26,0,0,0,.13.72.68.68,0,0,0,.52.15.71.71,0,0,0,.5-.14.67.67,0,0,0,.14-.49v-.1Z"/><path d="M56.32,31.91a2.07,2.07,0,0,1,.38-1.42,1.78,1.78,0,0,1,1.33-.4h.59a1.79,1.79,0,0,1,1.34.41,2.06,2.06,0,0,1,.38,1.42v.93A2.06,2.06,0,0,1,60,34.26a1.79,1.79,0,0,1-1.34.41H58a1.78,1.78,0,0,1-1.33-.4,2.07,2.07,0,0,1-.38-1.42Zm1.23.1v.74a1.26,1.26,0,0,0,.13.72.72.72,0,0,0,.54.15h.22a.72.72,0,0,0,.54-.15,1.24,1.24,0,0,0,.13-.72V32a1.25,1.25,0,0,0-.13-.72.72.72,0,0,0-.54-.15h-.22a.71.71,0,0,0-.54.15A1.27,1.27,0,0,0,57.54,32Z"/><path d="M61.11,34.62V30.14h1.8a2.62,2.62,0,0,1,1.42.27,1.09,1.09,0,0,1,.38,1v.36a1.06,1.06,0,0,1-.22.71,1,1,0,0,1-.65.31,1.12,1.12,0,0,1,.66.3.92.92,0,0,1,.21.64v.92H63.49v-.81a.54.54,0,0,0-.11-.39.59.59,0,0,0-.41-.11h-.66v1.3Zm1.2-2.31H63a.6.6,0,0,0,.41-.11.54.54,0,0,0,.11-.39v-.17a.54.54,0,0,0-.11-.39.59.59,0,0,0-.41-.11h-.67Z"/><path d="M65.53,34.62V30.14h3.36v1H66.73v.78h2.1v.86h-2.1v.84h2.21v1Z"/></g><text x="0" y="115" fill="#000000" font-size="5px" font-weight="bold" font-family="'Helvetica Neue', Helvetica, Arial-Unicode, Arial, Sans-serif">Created by Wahyu Adam</text><text x="0" y="120" fill="#000000" font-size="5px" font-weight="bold" font-family="'Helvetica Neue', Helvetica, Arial-Unicode, Arial, Sans-serif">from the Noun Project</text></svg>